<?xml version="1.0" standalone="yes"?>
<svg xmlns="http://www.w3.org/2000/svg" width="1920" height="929">
<path style="fill:#c2afd9; stroke:none;" d="M0 0L1 1L0 0z"/>
<path style="fill:#030203; stroke:none;" d="M0 929L1920 929L1920 0L471 0L117 0L30 0C24.3387 0 4.70314 -3.03711 1.02778 1.60339C-1.66235 4.99994 0 13.8748 0 18L0 64L0 241L0 929z"/>
<path style="fill:#47935c; stroke:none;" d="M872 2L871 5L872 5L873 5L872 2z"/>
<path style="fill:#7f3f9b; stroke:none;" d="M500 20L501 21L500 20z"/>
<path style="fill:#47935c; stroke:none;" d="M1205 26L1205 27L1208 28L1205 26z"/>
<path style="fill:#7f3f9b; stroke:none;" d="M929.667 28.3333L930.333 28.6667L929.667 28.3333z"/>
<path style="fill:#47935c; stroke:none;" d="M1201 29L1202 30L1201 29z"/>
<path style="fill:#7f3f9b; stroke:none;" d="M944 40L946 42L946 40L944 40z"/>
<path style="fill:#47935c; stroke:none;" d="M859 41L861 44L859 41z"/>
<path style="fill:#7f3f9b; stroke:none;" d="M940 42L940 44L942 44L942 42L940 42z"/>
<path style="fill:#47935c; stroke:none;" d="M873 46L874 49L875 49L875 46L873 46z"/>
<path style="fill:#7f3f9b; stroke:none;" d="M1407.67 52.3333L1408.33 52.6667L1407.67 52.3333z"/>
<path style="fill:#47935c; stroke:none;" d="M875 54L876 55L875 54z"/>
<path style="fill:#7f3f9b; stroke:none;" d="M1616.67 54.3333L1617.33 54.6667L1616.67 54.3333M522.667 55.3333L523.333 55.6667L522.667 55.3333z"/>
<path style="fill:#d4a153; stroke:none;" d="M1616.67 55.3333L1617.33 55.6667L1616.67 55.3333z"/>
<path style="fill:#7f3f9b; stroke:none;" d="M937.333 56.6667L937.667 57.3333L937.333 56.6667z"/>
<path style="fill:#47935c; stroke:none;" d="M1052.67 56.3333L1053.33 56.6667L1052.67 56.3333z"/>
<path style="fill:#7f3f9b; stroke:none;" d="M1616 56L1617 57L1616 56M520 61L523 63L520 61M664 63L665 64L664 63M463 68L464 69L463 68M1426 70L1427 71L1426 70M1668.33 70.6667L1668.67 71.3333L1668.33 70.6667M1686 77L1687 78L1686 77M1604.67 78.3333L1605.33 78.6667L1604.67 78.3333M1599 79L1602 85L1599 79M1602 79L1603 80L1602 79M1415 80L1416 81L1415 80z"/>
<path style="fill:#d4a153; stroke:none;" d="M1416.67 80.3333L1417.33 80.6667L1416.67 80.3333z"/>
<path style="fill:#7f3f9b; stroke:none;" d="M1434 82L1435 83L1434 82z"/>
<path style="fill:#d4a153; stroke:none;" d="M1601 83L1602 84L1601 83z"/>
<path style="fill:#7f3f9b; stroke:none;" d="M922 86L922 88L924 86L922 86z"/>
<path style="fill:#47935c; stroke:none;" d="M821 87L822 88L821 87z"/>
<path style="fill:#7f3f9b; stroke:none;" d="M821 88L823 90L821 88z"/>
<path style="fill:#47935c; stroke:none;" d="M839.333 88.6667L839.667 89.3333L839.333 88.6667z"/>
<path style="fill:#7f3f9b; stroke:none;" d="M925 88L925 90L927 90L927 88L925 88M546 89L547 90L546 89z"/>
<path style="fill:#47935c; stroke:none;" d="M821 89L822 90L821 89M1709 89L1710 90L1709 89z"/>
<path style="fill:#7f3f9b; stroke:none;" d="M301 90L300 94L301 90M647 91L648 92L647 91M838 95L841 95L840 93L838 95z"/>
<path style="fill:#47935c; stroke:none;" d="M1705.67 93.3333L1706.33 93.6667L1705.67 93.3333M1793.33 93.6667L1793.67 94.3333L1793.33 93.6667z"/>
<path style="fill:#7f3f9b; stroke:none;" d="M538 94L536 99L537 99L539 96L543 97L542 94L538 94z"/>
<path style="fill:#47935c; stroke:none;" d="M838 95L839 96L838 95z"/>
<path style="fill:#d4a153; stroke:none;" d="M839 95L840 96L839 95z"/>
<path style="fill:#7f3f9b; stroke:none;" d="M309 97L310 104L313 103L309 97z"/>
<path style="fill:#47935c; stroke:none;" d="M1696.33 97.6667L1696.67 98.3333L1696.33 97.6667z"/>
<path style="fill:#7f3f9b; stroke:none;" d="M499 99L504 107L503 100L499 99M837 99L840 102L837 99M582.333 100.667L582.667 101.333L582.333 100.667z"/>
<path style="fill:#d4a153; stroke:none;" d="M838 100L839 101L838 100z"/>
<path style="fill:#030203; stroke:none;" d="M311 101L312 102L311 101z"/>
<path style="fill:#7f3f9b; stroke:none;" d="M682.667 102.333L683.333 102.667L682.667 102.333M1441 102L1442 103L1441 102z"/>
<path style="fill:#030203; stroke:none;" d="M501 103L503 105L503 103L501 103z"/>
<path style="fill:#7f3f9b; stroke:none;" d="M569 103L570 104L569 103M1275 103L1276 106L1274 105L1274 106L1278 106L1275 103M1445 103L1446 104L1445 103M661 104L661 107L663 106L663 105L661 104M678 104L681 109L681 105L678 104M683 104L682 108L685 105L683 104M571.667 105.333L572.333 105.667L571.667 105.333M1441 105L1442 106L1441 105M658.667 107.333L659.333 107.667L658.667 107.333z"/>
<path style="fill:#c2afd9; stroke:none;" d="M675 108L676 109L675 108z"/>
<path style="fill:#7f3f9b; stroke:none;" d="M676 108L675 110L677 110L676 108M658 109L658 110L662 112L658 109M231 110L232 111L231 110M678 110L679 111L678 110M676 112L675 114L677 114L676 112M383 114L384 115L383 114z"/>
<path style="fill:#47935c; stroke:none;" d="M1760 114L1761 115L1760 114M1085 115L1086 116L1085 115M1087 117L1088 118L1087 117M1787 121L1790 119L1787 121z"/>
<path style="fill:#7f3f9b; stroke:none;" d="M331 121L332 122L331 121M410.667 122.333L411.333 122.667L410.667 122.333M601 123L600 125L602 125L601 123M1284 124L1285 125L1284 124M329 125L331 127L331 125L329 125M336 125L337 126L336 125M1099 127L1102 127L1101 125L1099 127M1313 125L1314 126L1313 125z"/>
<path style="fill:#47935c; stroke:none;" d="M1792.33 125.667L1792.67 126.333L1792.33 125.667z"/>
<path style="fill:#7f3f9b; stroke:none;" d="M549 126L551 128L549 126M1075 126L1076 127L1075 126z"/>
<path style="fill:#47935c; stroke:none;" d="M1076 126L1077 127L1076 126z"/>
<path style="fill:#7f3f9b; stroke:none;" d="M1790 126L1791 127L1790 126M800 127L801 128L800 127M1282 127L1283 128L1282 127M668 128L666 132L667 132L668 128z"/>
<path style="fill:#47935c; stroke:none;" d="M1796 130L1795 132L1796 130z"/>
<path style="fill:#7f3f9b; stroke:none;" d="M1867 130L1868 131L1867 130M478 131L479 132L478 131M1624 131L1625 132L1624 131M656 134L656 139L657 139L658 134L661 136L661 132L656 134M1856 132L1856 133L1859 134L1856 132M1217.33 133.667L1217.67 134.333L1217.33 133.667M203 134L203 136L205 134L203 134M1868 134L1867 137L1868 134M668 135L667 138L668 138L668 135M1279 136L1280 137L1279 136M837 138L838 139L837 138z"/>
<path style="fill:#47935c; stroke:none;" d="M838 138L839 143L840 143L840 138L838 138z"/>
<path style="fill:#7f3f9b; stroke:none;" d="M1650 138L1651 139L1650 138M660 139L663 142L660 139M1279 139L1280 140L1279 139M1653.33 139.667L1653.67 140.333L1653.33 139.667M666 140L667 141L666 140M668 141L666 147L670 148L671 144L677 145C675.212 140.446 672.401 140.696 668 141z"/>
<path style="fill:#d4a153; stroke:none;" d="M673.667 140.333L674.333 140.667L673.667 140.333z"/>
<path style="fill:#7f3f9b; stroke:none;" d="M838 140L839 141L838 140M1658.67 140.333L1659.33 140.667L1658.67 140.333z"/>
<path style="fill:#d4a153; stroke:none;" d="M671 141L672 142L671 141z"/>
<path style="fill:#7f3f9b; stroke:none;" d="M839 141L840 142L839 141z"/>
<path style="fill:#c2afd9; stroke:none;" d="M672.667 142.333L673.333 142.667L672.667 142.333z"/>
<path style="fill:#47935c; stroke:none;" d="M1067 142L1067 143L1070 143L1067 142z"/>
<path style="fill:#d4a153; stroke:none;" d="M668.333 143.667L668.667 144.333L668.333 143.667z"/>
<path style="fill:#7f3f9b; stroke:none;" d="M661 144L664 147L661 144M836 146L836 147L840 146L836 146M968 146L969 147L968 146z"/>
<path style="fill:#47935c; stroke:none;" d="M838 147L836 151L838 147z"/>
<path style="fill:#7f3f9b; stroke:none;" d="M975 147L973 152L974 152L977 147L975 147M1671 147L1667 149C1669.05 151.072 1671.08 149.758 1671 147M839 149L840 150L839 149M1201 149L1202 150L1201 149M1686.33 149.667L1686.67 150.333L1686.33 149.667M1228 150L1229 151L1228 150M1439 150L1440 151L1439 150M1409 153L1410 154L1409 153M1438 153L1439 154L1438 153M1874 155L1875 159L1876 159L1874 155z"/>
<path style="fill:#d4a153; stroke:none;" d="M1876.33 155.667L1876.67 156.333L1876.33 155.667z"/>
<path style="fill:#7f3f9b; stroke:none;" d="M1877.33 155.667L1877.67 156.333L1877.33 155.667M1859 156L1862 158L1859 156M392 157L393 158L392 157M972 157L973 158L972 157M1854 157L1855 158L1854 157M649 159L650 160L649 159M1093 159L1094 160L1093 159M1873 159L1874 160L1873 159M411 160L412 161L411 160M1855 160L1856 161L1855 160z"/>
<path style="fill:#d4a153; stroke:none;" d="M1856 160L1857 161L1856 160z"/>
<path style="fill:#7f3f9b; stroke:none;" d="M1857 160L1858 161L1857 160M862 163L864 168L869 162L862 163M1859 162L1860 163L1859 162z"/>
<path style="fill:#030203; stroke:none;" d="M864 163L865 166L866 166L864 163z"/>
<path style="fill:#7f3f9b; stroke:none;" d="M1211 163L1212 166L1213 166L1211 163M1393 163L1394 164L1393 163M1600.33 163.667L1600.67 164.333L1600.33 163.667M1890 164L1891 165L1890 164z"/>
<path style="fill:#d4a153; stroke:none;" d="M860 169L864 165L860 169z"/>
<path style="fill:#47935c; stroke:none;" d="M297 166L299 168L299 166L297 166z"/>
<path style="fill:#7f3f9b; stroke:none;" d="M858 166L863 172L860 169L861 166L858 166M971 166L971 168L973 168L971 166M1021 166L1022 167L1021 166M1206 167L1205 169L1207 169L1206 167M1857 167L1857 168L1861 170L1857 167M1088.67 168.333L1089.33 168.667L1088.67 168.333z"/>
<path style="fill:#d4a153; stroke:none;" d="M1857 168L1859 170L1859 168L1857 168z"/>
<path style="fill:#7f3f9b; stroke:none;" d="M1202.67 169.333L1203.33 169.667L1202.67 169.333M1857.33 169.667L1857.67 170.333L1857.33 169.667M1070 170L1071 171L1070 170M871 171L871 173L873 173L871 171M1604 171L1606 173L1606 171L1604 171M867 172L867 175L868 175L869 172L867 172M1217 172L1218 173L1217 172z"/>
<path style="fill:#47935c; stroke:none;" d="M1860 172L1861 173L1860 172M292 173L293 174L292 173z"/>
<path style="fill:#7f3f9b; stroke:none;" d="M1426 173L1424 176L1423 176L1421 174L1422 180L1423 180L1430 174L1426 173M740 174L741 175L740 174z"/>
<path style="fill:#47935c; stroke:none;" d="M293 175L294 176L293 175z"/>
<path style="fill:#7f3f9b; stroke:none;" d="M643 175L644 176L643 175M868 177L871 176L868 177M888 175L889 176L888 175z"/>
<path style="fill:#d4a153; stroke:none;" d="M1425 175L1426 176L1425 175z"/>
<path style="fill:#c2afd9; stroke:none;" d="M1426 175L1425 177L1427 177L1426 175z"/>
<path style="fill:#7f3f9b; stroke:none;" d="M1013 176L1016 178L1013 176M650 180L654 177L650 180M1107 177L1108 178L1107 177M1171 177L1170 179L1172 179L1171 177z"/>
<path style="fill:#c2afd9; stroke:none;" d="M652 178L653 179L652 178z"/>
<path style="fill:#7f3f9b; stroke:none;" d="M1218 178L1219 179L1218 178M696 179L697 180L696 179M754 179L755 180L754 179M1109 183L1112 182L1112 185L1113 185L1118 182C1115.07 178.396 1111.67 179.878 1109 183M1424 179L1426 181L1424 179M1696 179L1696 180L1700 180L1700 179L1696 179M1535 180L1536 181L1535 180z"/>
<path style="fill:#47935c; stroke:none;" d="M485 181L486 182L485 181z"/>
<path style="fill:#7f3f9b; stroke:none;" d="M1420 181L1425 187L1424 181L1420 181M893 182L894 183L893 182z"/>
<path style="fill:#c2afd9; stroke:none;" d="M1422 183L1423 184L1422 183z"/>
<path style="fill:#7f3f9b; stroke:none;" d="M1439 183L1440 184L1439 183M1137 185L1137 187L1139 187L1139 185L1137 185z"/>
<path style="fill:#47935c; stroke:none;" d="M493 187L494 195L496 195L493 187z"/>
<path style="fill:#7f3f9b; stroke:none;" d="M969 187L971 189L969 187M1584 187L1583 190L1584 187M1221 189L1222 190L1221 189M1423 189L1424 192L1421 191L1421 192L1424 193L1423 198L1425 200L1426 200L1428 199L1426 197L1428 191L1423 189M1222 191L1222 195L1223 195L1222 191M1227 191L1227 193L1229 193L1229 191L1227 191M1472.33 192.667L1472.67 193.333L1472.33 192.667z"/>
<path style="fill:#47935c; stroke:none;" d="M491 193L488 197L491 193z"/>
<path style="fill:#7f3f9b; stroke:none;" d="M972 193L974 195L974 193L972 193M1429 194L1430 195L1429 194M722 195L723 196L722 195M770 195L774 197L774 196L770 195M977 195L978 196L977 195M1089.33 195.667L1089.67 196.333L1089.33 195.667M969 196L967 199L971 197L969 196z"/>
<path style="fill:#030203; stroke:none;" d="M1424 196L1425 197L1424 196z"/>
<path style="fill:#7f3f9b; stroke:none;" d="M1000 197L1001 198L1000 197M1002 198L1010 203L1009 215L1010 216L1013 215L1012 220C1019.09 217.685 1016.33 212.171 1014 207L1016 208C1012.01 200.149 1010.82 198.478 1002 198z"/>
<path style="fill:#d4a153; stroke:none;" d="M1426 197L1427 198L1426 197z"/>
<path style="fill:#47935c; stroke:none;" d="M550 198L549 200L551 200L550 198z"/>
<path style="fill:#7f3f9b; stroke:none;" d="M1527.33 198.667L1527.67 199.333L1527.33 198.667M1754 198L1755 199L1754 198M650.667 199.333L651.333 199.667L650.667 199.333M976 199L975 203L978 199L976 199M1124 200L1126 202L1124 200z"/>
<path style="fill:#47935c; stroke:none;" d="M494 202L495 203L494 202z"/>
<path style="fill:#7f3f9b; stroke:none;" d="M1001 202L1001 204L1003 202L1001 202M1086 203L1086 204L1090 205L1086 203z"/>
<path style="fill:#47935c; stroke:none;" d="M480 204L482 208L480 204z"/>
<path style="fill:#7f3f9b; stroke:none;" d="M477 206L480 211L478 213L479 214L480 214L481 214L483 209L479 205L477 206M480 205L481 206L480 205z"/>
<path style="fill:#c2afd9; stroke:none;" d="M1011 205L1012 215C1013.6 211.273 1013.65 208.198 1011 205z"/>
<path style="fill:#7f3f9b; stroke:none;" d="M1711.33 205.667L1711.67 206.333L1711.33 205.667M481 206L482 207L481 206M761 206L760 208L761 206M765 206L765 211L766 211L765 206z"/>
<path style="fill:#c2afd9; stroke:none;" d="M480 207L481 208L480 207z"/>
<path style="fill:#7f3f9b; stroke:none;" d="M1713 207L1713 208L1717 209L1713 207M477 208L478 209L477 208M1723 208L1724 209L1723 208M1721 209L1722 210L1721 209M977.333 210.667L977.667 211.333L977.333 210.667M1715 210L1716 211L1715 210M1719 210L1720 211L1719 210M730.333 211.667L730.667 212.333L730.333 211.667M1781.33 211.667L1781.67 212.333L1781.33 211.667z"/>
<path style="fill:#47935c; stroke:none;" d="M455.333 212.667L455.667 213.333L455.333 212.667z"/>
<path style="fill:#030203; stroke:none;" d="M479 212L480 213L479 212z"/>
<path style="fill:#7f3f9b; stroke:none;" d="M973 212L973 214L975 214L975 212L973 212M454 213L455 214L454 213M456 215L459 214L456 215M460 213L459 215L461 215L460 213z"/>
<path style="fill:#030203; stroke:none;" d="M1014 213L1015 216L1016 216L1016 213L1014 213z"/>
<path style="fill:#7f3f9b; stroke:none;" d="M1627 213L1626 215L1628 215L1627 213z"/>
<path style="fill:#47935c; stroke:none;" d="M457 214L458 215L457 214z"/>
<path style="fill:#7f3f9b; stroke:none;" d="M757 215L763 217L763 216L760 214L757 215M1234 214L1236 216L1236 214L1234 214M1248.33 217.667L1248.67 218.333L1248.33 217.667M893 218L894 219L893 218M1630 220L1629 229L1626 230L1626 231L1630 230L1629 233L1631 236C1633.93 233.5 1641.8 222.034 1636.89 218.944C1633.35 216.715 1626.32 220.126 1630 220M1405.67 219.333L1406.33 219.667L1405.67 219.333M1408 219L1409 220L1408 219z"/>
<path style="fill:#d4a153; stroke:none;" d="M1632 219L1632 221L1636 221L1636 219L1632 219z"/>
<path style="fill:#7f3f9b; stroke:none;" d="M1233 220L1234 221L1233 220z"/>
<path style="fill:#d4a153; stroke:none;" d="M1629 220L1630 221L1629 220z"/>
<path style="fill:#7f3f9b; stroke:none;" d="M1407 221L1407 223L1409 221L1407 221z"/>
<path style="fill:#030203; stroke:none;" d="M1636 221L1637 222L1636 221z"/>
<path style="fill:#d4a153; stroke:none;" d="M1637 222L1638 223L1637 222z"/>
<path style="fill:#7f3f9b; stroke:none;" d="M1608 223L1609 224L1608 223z"/>
<path style="fill:#d4a153; stroke:none;" d="M1630 223L1632 228L1633 223L1630 223z"/>
<path style="fill:#030203; stroke:none;" d="M1635 223L1636 224L1635 223M1633 225L1634 228L1637 226L1633 225z"/>
<path style="fill:#7f3f9b; stroke:none;" d="M1700 227L1701 228L1700 227M944.333 229.667L944.667 230.333L944.333 229.667M1636 229L1637 230L1636 229z"/>
<path style="fill:#47935c; stroke:none;" d="M321.667 230.333L322.333 230.667L321.667 230.333z"/>
<path style="fill:#d4a153; stroke:none;" d="M1626 231L1626 233L1632 233L1629 233L1630 230L1626 231z"/>
<path style="fill:#7f3f9b; stroke:none;" d="M1069 231L1070 232L1069 231z"/>
<path style="fill:#47935c; stroke:none;" d="M1294 231L1295 232L1294 231z"/>
<path style="fill:#030203; stroke:none;" d="M1631 231L1632 232L1631 231z"/>
<path style="fill:#7f3f9b; stroke:none;" d="M1559 233L1560 234L1559 233M1626 233L1628 235L1628 233L1626 233z"/>
<path style="fill:#c2afd9; stroke:none;" d="M1630 233L1631 234L1630 233z"/>
<path style="fill:#47935c; stroke:none;" d="M336 236L340 239L340 238L336 236z"/>
<path style="fill:#7f3f9b; stroke:none;" d="M666 236L667 237L666 236z"/>
<path style="fill:#47935c; stroke:none;" d="M334.333 238.667L334.667 239.333L334.333 238.667z"/>
<path style="fill:#7f3f9b; stroke:none;" d="M1304 239L1304 242L1305 242L1306 239L1304 239M1306 242L1307 243L1308 243L1309 242L1308 240L1310 240L1306 242z"/>
<path style="fill:#47935c; stroke:none;" d="M556.333 240.667L556.667 241.333L556.333 240.667M1305 240L1305 242L1307 240L1305 240M1308.67 240.333L1309.33 240.667L1308.67 240.333M1307 241L1308 242L1307 241M1311 241L1312 242L1311 241M1302 242L1302 243L1305 243L1302 242M1308 242L1309 243L1308 242M320 247L321 248L320 247z"/>
<path style="fill:#7f3f9b; stroke:none;" d="M1707 247L1708 248L1707 247M320 248L321 249L320 248M1495 249L1496 250L1495 249M1540 249L1539 252L1540 249M1209 253L1210 254L1209 253M1709.67 253.333L1710.33 253.667L1709.67 253.333M1490 254L1491 255L1490 254M1704 254L1705 255L1704 254M888 255L887 256L887 257L888 258L889 258L890 257L890 256L888 255M891 255L893 257L893 255L891 255M577 258L582 259C580.383 256.74 579.027 255.699 577 258M1311.67 256.333L1312.33 256.667L1311.67 256.333M1622 256L1625 258L1622 256M803 257L804 258L803 257M1544.67 257.333L1545.33 257.667L1544.67 257.333M1703 257L1704 258L1703 257M1016 258L1016 260L1018 258L1016 258z"/>
<path style="fill:#47935c; stroke:none;" d="M879 260L880 261L879 260z"/>
<path style="fill:#7f3f9b; stroke:none;" d="M1704.67 260.333L1705.33 260.667L1704.67 260.333z"/>
<path style="fill:#47935c; stroke:none;" d="M758 261L759 262L758 261z"/>
<path style="fill:#7f3f9b; stroke:none;" d="M1467 261L1468 264L1470 264L1471 261L1467 261M560 262L561 263L560 262z"/>
<path style="fill:#47935c; stroke:none;" d="M563 262L565 264L563 262z"/>
<path style="fill:#7f3f9b; stroke:none;" d="M573 263L574 266L576 266L577 263L576 262L573 263M887.333 262.667L887.667 263.333L887.333 262.667M222 264L223 265L222 264M578 264L579 265L578 264z"/>
<path style="fill:#47935c; stroke:none;" d="M716.667 264.333L717.333 264.667L716.667 264.333z"/>
<path style="fill:#7f3f9b; stroke:none;" d="M718 264L720 267L718 264M1773 264L1774 265L1773 264M1055 271L1063 268L1063 267C1059.12 265.591 1056.44 267.322 1055 271M1773 266L1774 267L1773 266M470 270L473 269L470 270M620 268L621 269L620 268z"/>
<path style="fill:#c2afd9; stroke:none;" d="M1058 268L1057 270L1059 270L1058 268z"/>
<path style="fill:#7f3f9b; stroke:none;" d="M1300 268L1299 271L1300 268M1303 268L1304 269L1303 268M1472 268L1474 270L1474 268L1472 268M614 272L615 272L617 271L617 270L614 272M1063 269L1064 270L1063 269M1133 269L1135 271L1133 269z"/>
<path style="fill:#d4a153; stroke:none;" d="M1298.67 269.333L1299.33 269.667L1298.67 269.333z"/>
<path style="fill:#7f3f9b; stroke:none;" d="M414 270L415 271L414 270M619 270L619 272L621 270L619 270M1524.33 270.667L1524.67 271.333L1524.33 270.667M605 271L608 273L605 271M610 271L611 272L610 271M1038 272L1039 273L1038 272M467 273L468 274L467 273z"/>
<path style="fill:#47935c; stroke:none;" d="M884 273L885 274L884 273z"/>
<path style="fill:#7f3f9b; stroke:none;" d="M1040 273L1041 274L1040 273z"/>
<path style="fill:#47935c; stroke:none;" d="M267 274L268 275L267 274z"/>
<path style="fill:#7f3f9b; stroke:none;" d="M471.333 274.667L471.667 275.333L471.333 274.667M632.667 274.333L633.333 274.667L632.667 274.333M814 275L813 278L813 279L817 287L822 285L821 283L825 282L825 281L822 282C820.439 277.483 819.269 274.538 814 275z"/>
<path style="fill:#47935c; stroke:none;" d="M1123 274L1125 276L1125 274L1123 274z"/>
<path style="fill:#7f3f9b; stroke:none;" d="M1288 274L1289 277L1292 276L1293 280L1296 280L1296 284C1298.57 280.959 1299.33 278.779 1298 275L1288 274z"/>
<path style="fill:#030203; stroke:none;" d="M817 275L818 276L817 275z"/>
<path style="fill:#7f3f9b; stroke:none;" d="M911.333 275.667L911.667 276.333L911.333 275.667M1115 275L1116 276L1115 275M1125 275L1126 276L1125 275z"/>
<path style="fill:#d4a153; stroke:none;" d="M1289.67 275.333L1290.33 275.667L1289.67 275.333z"/>
<path style="fill:#7f3f9b; stroke:none;" d="M417.333 276.667L417.667 277.333L417.333 276.667z"/>
<path style="fill:#c2afd9; stroke:none;" d="M815 276L818 278L815 276z"/>
<path style="fill:#7f3f9b; stroke:none;" d="M1300 276L1301 277L1300 276z"/>
<path style="fill:#47935c; stroke:none;" d="M1471 277L1472 278L1471 277M815 278L817 280L817 278L815 278z"/>
<path style="fill:#7f3f9b; stroke:none;" d="M1055 281L1056 282L1061 279L1062 283L1058 282L1062 287C1063.29 281.311 1060.68 276.155 1055 281z"/>
<path style="fill:#c2afd9; stroke:none;" d="M1059 279L1058 282L1062 283L1061 279L1059 279z"/>
<path style="fill:#7f3f9b; stroke:none;" d="M1113 279L1115 281L1113 279z"/>
<path style="fill:#47935c; stroke:none;" d="M1133 279L1134 280L1133 279z"/>
<path style="fill:#7f3f9b; stroke:none;" d="M1778 279L1775 283L1778 284L1778 279z"/>
<path style="fill:#030203; stroke:none;" d="M1056 280L1057 281L1056 280z"/>
<path style="fill:#47935c; stroke:none;" d="M1468 280L1470 282L1470 280L1468 280z"/>
<path style="fill:#7f3f9b; stroke:none;" d="M1781 280L1782 281L1781 280z"/>
<path style="fill:#030203; stroke:none;" d="M816 281L817 282L816 281z"/>
<path style="fill:#47935c; stroke:none;" d="M1131 281L1132 282L1131 281M334 283L335 284L334 283z"/>
<path style="fill:#7f3f9b; stroke:none;" d="M336 284L335 286L337 286L336 284z"/>
<path style="fill:#030203; stroke:none;" d="M1059.33 284.667L1059.67 285.333L1059.33 284.667z"/>
<path style="fill:#7f3f9b; stroke:none;" d="M1064 284L1065 285L1064 284M706 285L707 286L706 285z"/>
<path style="fill:#c2afd9; stroke:none;" d="M707 285L708 286L707 285z"/>
<path style="fill:#7f3f9b; stroke:none;" d="M708 285L709 286L708 285M829 286L830 287L829 286M831 286L832 287L831 286M830 288L827 293L831 293L832 288L830 288z"/>
<path style="fill:#47935c; stroke:none;" d="M826 289L825 291L826 289z"/>
<path style="fill:#7f3f9b; stroke:none;" d="M1311 289L1313 291L1311 289z"/>
<path style="fill:#47935c; stroke:none;" d="M340 290L341 291L340 290z"/>
<path style="fill:#7f3f9b; stroke:none;" d="M592 290L593 294L594 294C594 291.04 595.959 293.033 598 294L598 291L592 290M824 290L825 291L824 290M833 290L832 293L833 290M1277 290L1278 291L1277 290z"/>
<path style="fill:#47935c; stroke:none;" d="M1278 290L1279 291L1278 290z"/>
<path style="fill:#7f3f9b; stroke:none;" d="M1290 290L1291 291L1290 290M1308.33 292.667L1308.67 293.333L1308.33 292.667M1310 292C1309.87 295.999 1310.82 298.066 1315 298L1315 301L1323 306C1323 301.572 1329.14 305.473 1332 306L1326 301L1336 303L1335 296L1334 296L1333 302L1330 302C1330.32 298.34 1329.52 297.075 1326 296L1327 299L1322 302L1314 294L1313 294L1312 296L1310 292z"/>
<path style="fill:#47935c; stroke:none;" d="M271 293L269 298C272.49 297.419 273.547 296.56 273 293L271 293z"/>
<path style="fill:#7f3f9b; stroke:none;" d="M270 294L271 295L270 294M877 294L878 295L877 294z"/>
<path style="fill:#d4a153; stroke:none;" d="M1311 294L1313 296L1311 294z"/>
<path style="fill:#47935c; stroke:none;" d="M1312 294L1313 295L1312 294z"/>
<path style="fill:#7f3f9b; stroke:none;" d="M1333 294L1334 295L1333 294M1545 294L1545 296L1547 296L1547 294L1545 294M1554 294L1557 297L1554 294z"/>
<path style="fill:#c2afd9; stroke:none;" d="M271 296L272 297L271 296z"/>
<path style="fill:#7f3f9b; stroke:none;" d="M920 296L921 297L920 296z"/>
<path style="fill:#d4a153; stroke:none;" d="M1311 296L1312 297L1311 296z"/>
<path style="fill:#7f3f9b; stroke:none;" d="M1324 296L1325 297L1324 296z"/>
<path style="fill:#47935c; stroke:none;" d="M1325 296L1326 297L1325 296z"/>
<path style="fill:#7f3f9b; stroke:none;" d="M1306 297L1304 298L1304 299L1306 297M1729.33 297.667L1729.67 298.333L1729.33 297.667M922 298L923 299L922 298M1302 298L1301 300L1302 298M577.667 299.333L578.333 299.667L577.667 299.333z"/>
<path style="fill:#47935c; stroke:none;" d="M1251 299L1252 300L1251 299z"/>
<path style="fill:#7f3f9b; stroke:none;" d="M1253 299L1254 300L1253 299z"/>
<path style="fill:#d4a153; stroke:none;" d="M1328 299L1329 300L1328 299z"/>
<path style="fill:#7f3f9b; stroke:none;" d="M634 300L635 301L634 300M642 300L643 301L642 300z"/>
<path style="fill:#47935c; stroke:none;" d="M756 300L757 301L756 300z"/>
<path style="fill:#7f3f9b; stroke:none;" d="M646 301L647 302L646 301M1065 302L1065 307L1068 308L1069 308L1069 301L1065 302M1084 304L1087 301L1084 304z"/>
<path style="fill:#47935c; stroke:none;" d="M1326 301L1328 304L1326 301z"/>
<path style="fill:#7f3f9b; stroke:none;" d="M1718 301L1719 302L1718 301M1727 301L1728 302L1727 301M1060 302L1061 303L1060 302M1075 302L1073 308C1076.48 306.845 1077.17 304.995 1075 302z"/>
<path style="fill:#47935c; stroke:none;" d="M1322.67 302.333L1323.33 302.667L1322.67 302.333z"/>
<path style="fill:#7f3f9b; stroke:none;" d="M1255 303L1256 304L1255 303z"/>
<path style="fill:#030203; stroke:none;" d="M1328.67 303.333L1329.33 303.667L1328.67 303.333z"/>
<path style="fill:#47935c; stroke:none;" d="M1330 303L1330 304L1334 304L1330 303z"/>
<path style="fill:#7f3f9b; stroke:none;" d="M1102.33 304.667L1102.67 305.333L1102.33 304.667z"/>
<path style="fill:#47935c; stroke:none;" d="M1229 304L1230 305L1229 304z"/>
<path style="fill:#7f3f9b; stroke:none;" d="M1285 304C1286.02 308.565 1287.7 311.034 1292 313L1291 309L1289 310L1285 304z"/>
<path style="fill:#47935c; stroke:none;" d="M1322 304L1323 305L1322 304z"/>
<path style="fill:#7f3f9b; stroke:none;" d="M1334 304L1335 305L1334 304z"/>
<path style="fill:#c2afd9; stroke:none;" d="M1068 305L1069 306L1068 305z"/>
<path style="fill:#47935c; stroke:none;" d="M1321 305L1320 307L1322 307L1321 305M1329 305L1330 306L1329 305z"/>
<path style="fill:#7f3f9b; stroke:none;" d="M1549 305L1550 306L1549 305M1011.67 306.333L1012.33 306.667L1011.67 306.333z"/>
<path style="fill:#c2afd9; stroke:none;" d="M1075 306L1076 307L1075 306z"/>
<path style="fill:#7f3f9b; stroke:none;" d="M1321 307L1322 308L1321 307M1086 308L1085 312L1081 310L1082 314L1089 313L1089 312L1087 311L1091 309L1086 308M947 309L948 310L947 309M1014 310L1013 315C1016.63 313.798 1018.17 312.808 1019 309L1014 310M1068.67 309.333L1069.33 309.667L1068.67 309.333z"/>
<path style="fill:#030203; stroke:none;" d="M1086 309L1087 310L1086 309z"/>
<path style="fill:#7f3f9b; stroke:none;" d="M1665 309L1666 310L1665 309M971 310L969 312L969 313L974 314L971 310z"/>
<path style="fill:#c2afd9; stroke:none;" d="M1086 310L1087 311L1086 310z"/>
<path style="fill:#7f3f9b; stroke:none;" d="M1274.33 310.667L1274.67 311.333L1274.33 310.667z"/>
<path style="fill:#c2afd9; stroke:none;" d="M1016 311L1017 312L1016 311z"/>
<path style="fill:#7f3f9b; stroke:none;" d="M1610 311L1611 312L1610 311M940 312L941 313L940 312M946 312L947 313L946 312M942 314L943 315L942 314z"/>
<path style="fill:#47935c; stroke:none;" d="M1199 315L1200 316L1199 315M637 320L638 321L637 320z"/>
<path style="fill:#7f3f9b; stroke:none;" d="M1032 320L1032 321L1034 325L1039 322L1032 320M1727 320L1728 321L1727 320M944 321L942 323L942 324L944 321z"/>
<path style="fill:#030203; stroke:none;" d="M1035 321L1036 322L1035 321z"/>
<path style="fill:#47935c; stroke:none;" d="M636 322L637 323L636 322z"/>
<path style="fill:#7f3f9b; stroke:none;" d="M666.333 322.667L666.667 323.333L666.333 322.667M581 323L579 331L583 334L584 334L584 324L583 323L581 323M639 323L640 324L639 323M833 323L832 331L833 331L836 323L833 323M1575 325L1578 323L1575 325z"/>
<path style="fill:#c2afd9; stroke:none;" d="M834 325L835 326L834 325z"/>
<path style="fill:#7f3f9b; stroke:none;" d="M945 327L945 330C947.006 328.873 947.006 328.127 945 327z"/>
<path style="fill:#c2afd9; stroke:none;" d="M580 330L583 329L580 330z"/>
<path style="fill:#7f3f9b; stroke:none;" d="M578 332L578 337L579 337C579.653 335.04 580 334.446 580 337L581 337L578 332z"/>
<path style="fill:#47935c; stroke:none;" d="M1415 332L1416 333L1415 332z"/>
<path style="fill:#7f3f9b; stroke:none;" d="M1588 332L1591 334L1588 332M571 334L570 339C572.444 337.392 572.662 336.413 571 334M829 335L832 338L832 334L829 335M1584 334L1584 335L1584 336L1587 335L1587 334L1584 334z"/>
<path style="fill:#c2afd9; stroke:none;" d="M579.333 335.667L579.667 336.333L579.333 335.667z"/>
<path style="fill:#7f3f9b; stroke:none;" d="M916 335L917 336L916 335M1588 335L1589 336L1588 335M841 336L842 337L841 336M662 337L663 340L662 337M593 338L594 339L593 338M1381 338L1381 339L1381 340L1384 340L1384 339L1381 338M940 339L942 341L940 339z"/>
<path style="fill:#d4a153; stroke:none;" d="M941 339L942 340L941 339z"/>
<path style="fill:#7f3f9b; stroke:none;" d="M1001 339L1000 345L1005 342L1001 339z"/>
<path style="fill:#47935c; stroke:none;" d="M1380.33 339.667L1380.67 340.333L1380.33 339.667M1382 339L1383 340L1382 339z"/>
<path style="fill:#7f3f9b; stroke:none;" d="M1586 339L1587 340L1586 339z"/>
<path style="fill:#47935c; stroke:none;" d="M748 340L749 341L748 340z"/>
<path style="fill:#7f3f9b; stroke:none;" d="M1385 340L1386 341L1385 340M946 341L947 342L946 341M1379 341L1380 342L1379 341M1706 341L1707 342L1706 341M1596.33 342.667L1596.67 343.333L1596.33 342.667M948 343L949 344L948 343z"/>
<path style="fill:#47935c; stroke:none;" d="M1390 343L1391 345L1387 344L1387 345L1397 347L1390 343z"/>
<path style="fill:#7f3f9b; stroke:none;" d="M1391 343L1392 344L1391 343M1447 343L1448 344L1447 343M662.333 344.667L662.667 345.333L662.333 344.667M753 344L753 346L755 346L753 344M844.667 344.333L845.333 344.667L844.667 344.333M945.667 344.333L946.333 344.667L945.667 344.333M1396 344L1397 345L1396 344M544 345L545 346L544 345M948 345L949 346L948 345M1461 348L1461 349L1467 351L1465 347L1469 348L1468 351L1472 350L1472 347C1467.59 345.386 1465.01 345.565 1461 348M1391 346L1392 347L1391 346M431 347L432 348L431 347M879 347L880 348L879 347z"/>
<path style="fill:#d4a153; stroke:none;" d="M1465 347L1466 348L1465 347z"/>
<path style="fill:#c2afd9; stroke:none;" d="M1466 347L1468 350L1466 347z"/>
<path style="fill:#d4a153; stroke:none;" d="M1467 347L1467 349L1469 349L1467 347z"/>
<path style="fill:#7f3f9b; stroke:none;" d="M1594 347L1595 348L1594 347z"/>
<path style="fill:#d4a153; stroke:none;" d="M1466 349L1467 350L1466 349z"/>
<path style="fill:#7f3f9b; stroke:none;" d="M758 350L759 351L758 350z"/>
<path style="fill:#47935c; stroke:none;" d="M862.667 350.333L863.333 350.667L862.667 350.333z"/>
<path style="fill:#d4a153; stroke:none;" d="M1467 350L1468 351L1467 350z"/>
<path style="fill:#7f3f9b; stroke:none;" d="M1753.67 350.333L1754.33 350.667L1753.67 350.333M529 351L530 352L529 351M1473.33 352.667L1473.67 353.333L1473.33 352.667M747 354L748 355L747 354M1787 354L1788 355L1787 354M1559.67 355.333L1560.33 355.667L1559.67 355.333M1846 357L1844 363L1848 362L1846 357M1485 358L1486 359L1485 358M1837 358L1838 359L1837 358M479 359L470 368L476 369L479 359M482.333 359.667L482.667 360.333L482.333 359.667M475 360L476 361L475 360z"/>
<path style="fill:#47935c; stroke:none;" d="M480.667 360.333L481.333 360.667L480.667 360.333z"/>
<path style="fill:#7f3f9b; stroke:none;" d="M665 360L666 361L665 360M433 363L433 367L434 367L433 363z"/>
<path style="fill:#47935c; stroke:none;" d="M454 363L454 365L456 363L454 363z"/>
<path style="fill:#7f3f9b; stroke:none;" d="M1851 363L1850 366L1851 363z"/>
<path style="fill:#d4a153; stroke:none;" d="M474 367L477 364L474 367z"/>
<path style="fill:#7f3f9b; stroke:none;" d="M969 364L970 365L969 364M1547.33 364.667L1547.67 365.333L1547.33 364.667z"/>
<path style="fill:#c2afd9; stroke:none;" d="M475 365L476 366L475 365z"/>
<path style="fill:#7f3f9b; stroke:none;" d="M435 366L436 367L435 366M1051 367L1053 371L1054 371L1054 367L1055 367L1054 373L1056 368L1058 366L1051 367M419.333 367.667L419.667 368.333L419.333 367.667z"/>
<path style="fill:#d4a153; stroke:none;" d="M1054 367L1056 371L1054 367z"/>
<path style="fill:#7f3f9b; stroke:none;" d="M436 368L434 369L434 370L436 368M878.667 368.333L879.333 368.667L878.667 368.333M883 368L884 369L883 368M1017 368L1018 369L1017 368z"/>
<path style="fill:#d4a153; stroke:none;" d="M1018 368L1019 369L1018 368z"/>
<path style="fill:#7f3f9b; stroke:none;" d="M1019 368L1020 369L1019 368M1907 368L1908 369L1907 368z"/>
<path style="fill:#47935c; stroke:none;" d="M878 369L879 370L878 369z"/>
<path style="fill:#c2afd9; stroke:none;" d="M879 369L880 370L879 369z"/>
<path style="fill:#47935c; stroke:none;" d="M883.667 369.333L884.333 369.667L883.667 369.333z"/>
<path style="fill:#7f3f9b; stroke:none;" d="M883 370L884 371L883 370M1895 370L1895 372L1897 370L1895 370M431 371L432 372L431 371M878 371L879 372L878 371z"/>
<path style="fill:#47935c; stroke:none;" d="M883 371L884 372L883 371z"/>
<path style="fill:#7f3f9b; stroke:none;" d="M1002 371L1003 372L1002 371M1049 373L1052 371L1049 373M1908 371L1908 372L1910 372L1910 373L1906 374L1906 376C1910.05 376.156 1911.34 374.569 1913 371L1908 371M880 372L880 374L882 374L880 372z"/>
<path style="fill:#d4a153; stroke:none;" d="M1055 372L1056 373L1055 372z"/>
<path style="fill:#47935c; stroke:none;" d="M878.333 373.667L878.667 374.333L878.333 373.667z"/>
<path style="fill:#7f3f9b; stroke:none;" d="M1056.33 373.667L1056.67 374.333L1056.33 373.667M1913 373L1914 374L1913 373M877 374L878 375L877 374M440 375L441 376L440 375M458 375L457 377L456 376L456 377L458 378L460 375L458 375M880 375L880 377L882 377L880 375M468 376L467 378L468 376M438 377L439 378L438 377M1880 377L1879 380L1875 379L1878 386L1880 383L1885 382L1886 379L1886 378L1880 377M1904 377L1904 378L1907 378L1904 377M881.667 378.333L882.333 378.667L881.667 378.333M1843 378L1845 383L1845 378L1843 378M1465 379L1467 382L1465 379M1839.33 379.667L1839.67 380.333L1839.33 379.667M453 380L453 388L455 380L453 380M1468 380L1471 382L1471 381L1468 380M1553.67 380.333L1554.33 380.667L1553.67 380.333M1848 380L1849 381L1848 380z"/>
<path style="fill:#c2afd9; stroke:none;" d="M1881 380L1881 382L1883 382L1883 380L1881 380z"/>
<path style="fill:#7f3f9b; stroke:none;" d="M1852 383L1847 382L1847 383C1850.54 383.618 1852.91 384.189 1855 381L1852 383z"/>
<path style="fill:#d4a153; stroke:none;" d="M453.333 382.667L453.667 383.333L453.333 382.667z"/>
<path style="fill:#47935c; stroke:none;" d="M499 382L499 384L501 384L501 382L499 382z"/>
<path style="fill:#7f3f9b; stroke:none;" d="M872 385L873 385C873.653 383.04 874 382.446 874 385L875 385L874 382L872 385M891 382L892 385L893 385L893 382L891 382M1463 382L1464 383L1463 382M465 385L468 383L465 385z"/>
<path style="fill:#d4a153; stroke:none;" d="M873 383L874 384L873 383z"/>
<path style="fill:#47935c; stroke:none;" d="M464 384L465 385L464 384M466 385L466 386L469 387L469 384L466 385M873 384L874 385L873 384z"/>
<path style="fill:#7f3f9b; stroke:none;" d="M1848 384L1849 385L1848 384z"/>
<path style="fill:#47935c; stroke:none;" d="M792 385L793 386L792 385z"/>
<path style="fill:#7f3f9b; stroke:none;" d="M1146 387C1148.4 387.575 1148.49 387.475 1149 385L1146 387M1894 386L1893 391L1894 391L1899 386L1894 386M1917 385L1919 387L1919 385L1917 385M1554 386L1553 388L1554 386M1554 389L1555 390L1554 389M1218 390L1218 393L1220 393L1220 390L1218 390M699.667 393.333L700.333 393.667L699.667 393.333M1918 393L1918 399L1919 399L1918 393M704 396L704 400L705 400L704 396M1894 397L1895 398L1894 397M1217.33 398.667L1217.67 399.333L1217.33 398.667M1893 399L1894 400L1893 399M1895 400L1896 401L1895 400M1913 400L1907 409L1907 405L1902 406L1909 412L1910 409L1916 408L1919 405L1913 400M1215 401L1214 404L1215 401M468 403L468 407L473 402L468 403M235 403L236 406L235 403M481 403L482 404L481 403M610 403L611 404L610 403M1490 403L1490 405L1492 405L1492 403L1490 403M316 405L317 406L316 405M605 409L612 408L611 405L605 409M859 405L857 406L857 407L859 405z"/>
<path style="fill:#030203; stroke:none;" d="M1912 405L1914 408L1912 405z"/>
<path style="fill:#7f3f9b; stroke:none;" d="M1150 406L1151 413L1155 413L1154 407L1150 406z"/>
<path style="fill:#c2afd9; stroke:none;" d="M1151.33 406.667L1151.67 407.333L1151.33 406.667z"/>
<path style="fill:#47935c; stroke:none;" d="M468 407L469 408L468 407z"/>
<path style="fill:#7f3f9b; stroke:none;" d="M1274 407L1276 413L1280 415L1281 415L1283 413L1274 407M816 408L817 409L816 408z"/>
<path style="fill:#c2afd9; stroke:none;" d="M1152 408L1153 409L1152 408z"/>
<path style="fill:#47935c; stroke:none;" d="M1278.33 408.667L1278.67 409.333L1278.33 408.667z"/>
<path style="fill:#7f3f9b; stroke:none;" d="M1280 408L1280 409L1285 411L1284 413L1289 417L1290 416L1287 409L1286 409L1285 411L1280 408z"/>
<path style="fill:#47935c; stroke:none;" d="M1282 408L1283 409L1282 408z"/>
<path style="fill:#7f3f9b; stroke:none;" d="M1081 409L1082 410L1081 409z"/>
<path style="fill:#47935c; stroke:none;" d="M1285 409L1286 410L1285 409z"/>
<path style="fill:#7f3f9b; stroke:none;" d="M258 410L259 411L258 410z"/>
<path style="fill:#030203; stroke:none;" d="M1285 410L1286 411L1285 410z"/>
<path style="fill:#7f3f9b; stroke:none;" d="M1914 410L1911 415L1911 416L1918 416L1917 418L1918 418L1917 414L1918 411L1914 410z"/>
<path style="fill:#47935c; stroke:none;" d="M1277 412L1278 413L1277 412z"/>
<path style="fill:#7f3f9b; stroke:none;" d="M1345 412L1344 414C1344.33 417.073 1343.56 419.451 1347 420L1346 417L1349 419L1350 418L1346 416C1347.5 413.753 1347.39 413.274 1345 412z"/>
<path style="fill:#030203; stroke:none;" d="M1915 413L1917 415L1915 413z"/>
<path style="fill:#7f3f9b; stroke:none;" d="M1152 414L1153 415L1152 414z"/>
<path style="fill:#47935c; stroke:none;" d="M1286 414L1287 415L1286 414z"/>
<path style="fill:#7f3f9b; stroke:none;" d="M486 415L487 416L486 415M196 416L197 417L196 416z"/>
<path style="fill:#c2afd9; stroke:none;" d="M1346 417L1346 419L1348 419L1348 417L1346 417z"/>
<path style="fill:#7f3f9b; stroke:none;" d="M1398 417L1401 419L1398 417M1157 419L1158 420L1157 419M1288 419L1289 420L1288 419M1879 419L1879 422L1882 420L1879 419z"/>
<path style="fill:#c2afd9; stroke:none;" d="M1879 420L1880 421L1879 420z"/>
<path style="fill:#7f3f9b; stroke:none;" d="M186 421L186 422L189 423L188 427L193 428L193 423L186 421M1294 423L1295 424L1294 423z"/>
<path style="fill:#030203; stroke:none;" d="M189 424L190 425L189 424z"/>
<path style="fill:#7f3f9b; stroke:none;" d="M1639 424L1640 425L1639 424M286 425L290 428L286 425M1465 425L1465 427L1467 427L1467 425L1465 425M1636 425L1636 427L1638 427L1638 425L1636 425z"/>
<path style="fill:#c2afd9; stroke:none;" d="M287 426L288 427L287 426z"/>
<path style="fill:#7f3f9b; stroke:none;" d="M302 426L303 427L302 426M772 426L774 428L772 426M777 426L778 427L777 426M775 427L777 429L775 427M1882 427L1882 429L1884 429L1884 427L1882 427M1149 429L1149 430L1153 430L1149 429M1114 429L1115 430L1114 429M1041 431L1042 432L1041 431M1028 432L1029 433L1028 432M1604 432L1604 435L1606 432L1604 432M635 433L635 435L637 435L637 433L635 433M646 433L645 435L646 433M1151 433L1150 436L1151 433M606 434L607 435L606 434M1040 434L1040 441L1043 440L1040 434M1879 434L1880 435L1879 434M635 436L634 438L636 438L635 436z"/>
<path style="fill:#47935c; stroke:none;" d="M156 437L157 438L156 437z"/>
<path style="fill:#7f3f9b; stroke:none;" d="M184 437L185 438L184 437M1495 437L1496 438L1495 437M1497 437L1498 438L1497 437M639 438L640 439L639 438z"/>
<path style="fill:#030203; stroke:none;" d="M1040 439L1041 440L1040 439z"/>
<path style="fill:#7f3f9b; stroke:none;" d="M901 440L902 441L901 440M1024.33 440.667L1024.67 441.333L1024.33 440.667M1144 440L1144 443L1146 440L1144 440M1147 440L1151 443L1150 440L1147 440M1875.33 440.667L1875.67 441.333L1875.33 440.667M628 441L629 442L628 441M1038 441L1039 442L1038 441z"/>
<path style="fill:#c2afd9; stroke:none;" d="M1148 441L1149 442L1148 441z"/>
<path style="fill:#47935c; stroke:none;" d="M769 442L768 444L769 442z"/>
<path style="fill:#7f3f9b; stroke:none;" d="M1035 442L1036 443L1035 442M1006 444L1006 445L1008 444L1007 447L1010 447L1010 446L1008 443L1006 444M1706 443L1707 444L1706 443M1852 444L1854 448L1854 444L1852 444z"/>
<path style="fill:#47935c; stroke:none;" d="M163 445L163 446L166 447L163 445z"/>
<path style="fill:#7f3f9b; stroke:none;" d="M1588 445L1588 447L1590 445L1588 445M1849 445L1850 446L1849 445M901 449L904 447L901 449M1004.67 447.333L1005.33 447.667L1004.67 447.333M350 448L350 450L352 450L352 448L350 448M603 448L604 449L603 448M569.333 450.667L569.667 451.333L569.333 450.667M1038 450L1039 451L1038 450M1032 452L1038 456L1032 452M1026 455L1025 459L1029 458L1029 456L1026 455M1484 455L1484 459L1485 460L1489 456L1484 455M1374 459L1379 459L1378 456L1374 459M1369 460L1372 457L1369 460z"/>
<path style="fill:#47935c; stroke:none;" d="M1742 457L1741 460L1742 457z"/>
<path style="fill:#7f3f9b; stroke:none;" d="M503.333 458.667L503.667 459.333L503.333 458.667z"/>
<path style="fill:#c2afd9; stroke:none;" d="M1376 458L1377 459L1376 458z"/>
<path style="fill:#7f3f9b; stroke:none;" d="M1741 458L1742 459L1741 458z"/>
<path style="fill:#47935c; stroke:none;" d="M1738 459L1740 461L1740 459L1738 459z"/>
<path style="fill:#7f3f9b; stroke:none;" d="M1918 459L1919 460L1918 459M1738 460L1739 461L1738 460M1371 461L1371 465L1372 465L1371 461z"/>
<path style="fill:#47935c; stroke:none;" d="M1730.67 461.333L1731.33 461.667L1730.67 461.333z"/>
<path style="fill:#7f3f9b; stroke:none;" d="M1735 461L1736 462L1735 461M1176 463L1177 464L1176 463M1179 463L1180 464L1179 463z"/>
<path style="fill:#47935c; stroke:none;" d="M1730 463L1731 464L1730 463M1758 463L1754 467L1754 468L1759 470L1758 463z"/>
<path style="fill:#7f3f9b; stroke:none;" d="M1475 464L1476 465L1475 464M1498.33 464.667L1498.67 465.333L1498.33 464.667z"/>
<path style="fill:#47935c; stroke:none;" d="M1705 464L1706 465L1705 464z"/>
<path style="fill:#7f3f9b; stroke:none;" d="M1877 464L1878 465L1877 464M1717.33 465.667L1717.67 466.333L1717.33 465.667M1727 465L1728 466L1727 465z"/>
<path style="fill:#c2afd9; stroke:none;" d="M1757 466L1758 467L1757 466z"/>
<path style="fill:#7f3f9b; stroke:none;" d="M588 467L589 468L588 467M908 467L909 468L908 467M912 469L915 467L912 469M1385 467L1382 471L1387 470L1385 467M1488 468L1489 469L1488 468M1647 468C1645.98 472.452 1646.2 474.952 1651 476L1649 472L1652 471L1647 468z"/>
<path style="fill:#47935c; stroke:none;" d="M1730 468C1728.1 473.426 1732.32 477.451 1736 472L1732 473L1730 468z"/>
<path style="fill:#7f3f9b; stroke:none;" d="M1918 468L1919 469L1918 468M1667.33 469.667L1667.67 470.333L1667.33 469.667z"/>
<path style="fill:#c2afd9; stroke:none;" d="M1729 471L1729 473L1731 473L1729 471z"/>
<path style="fill:#7f3f9b; stroke:none;" d="M1918 471L1918 474L1919 474L1918 471z"/>
<path style="fill:#d4a153; stroke:none;" d="M991 472L992 473L991 472z"/>
<path style="fill:#7f3f9b; stroke:none;" d="M992 472L993 473L992 472M1846 472L1847 473L1846 472M991 473L992 474L991 473M1156.67 473.333L1157.33 473.667L1156.67 473.333M1659 473L1659 475L1661 475L1661 473L1659 473z"/>
<path style="fill:#47935c; stroke:none;" d="M1720 473L1721 474L1720 473z"/>
<path style="fill:#7f3f9b; stroke:none;" d="M774 474L775 475L774 474M1734 474L1735 475L1734 474M686 475L687 476L686 475M988 475L989 476L988 475M1735.33 475.667L1735.67 476.333L1735.33 475.667z"/>
<path style="fill:#47935c; stroke:none;" d="M1740.33 475.667L1740.67 476.333L1740.33 475.667M1748 475L1750 477L1750 475L1748 475z"/>
<path style="fill:#7f3f9b; stroke:none;" d="M682 476L679 480L682 476M777 477L778 478L777 477M954 477L955 478L954 477M1035 477L1036 478L1035 477z"/>
<path style="fill:#47935c; stroke:none;" d="M1732 478L1733 481L1739 479L1732 478M1739 477L1740 478L1739 477M131 478L130 481L131 482L134 481L134 480L131 481L131 478z"/>
<path style="fill:#7f3f9b; stroke:none;" d="M1889.67 478.333L1890.33 478.667L1889.67 478.333z"/>
<path style="fill:#47935c; stroke:none;" d="M1739 479L1740 480L1739 479z"/>
<path style="fill:#c2afd9; stroke:none;" d="M131.667 480.333L132.333 480.667L131.667 480.333z"/>
<path style="fill:#47935c; stroke:none;" d="M393.333 480.667L393.667 481.333L393.333 480.667z"/>
<path style="fill:#7f3f9b; stroke:none;" d="M776 480L777 481L776 480M779 481L778 490L784 491L787 488L779 481M776 482L777 483L776 482M888 483L885 487L888 483M532.333 484.667L532.667 485.333L532.333 484.667z"/>
<path style="fill:#030203; stroke:none;" d="M778 484L778 485L781 486L778 484z"/>
<path style="fill:#47935c; stroke:none;" d="M392 485L393 486L392 485z"/>
<path style="fill:#7f3f9b; stroke:none;" d="M1684 485L1685 488L1687 485L1684 485M1588 488L1589 489L1588 488M1672 489L1673 494L1678 493L1675 492L1675 491L1677 491L1672 489M800 491L800 493L802 493L800 491z"/>
<path style="fill:#c2afd9; stroke:none;" d="M1675.67 491.333L1676.33 491.667L1675.67 491.333z"/>
<path style="fill:#7f3f9b; stroke:none;" d="M843 492L845 506L846 506L847 504L848 504L852 506L849 498L844 496L845 492L843 492M804 493L804 502L806 493L804 493M846 493L847 494L846 493M1679 494L1681 496L1679 494M899 495L898 499L902 495L899 495M1677 495L1678 496L1677 495M908 497L909 502L909 503L906 506C909.522 503.651 909.759 500.757 908 497M1168 497L1169 498L1168 497M1678 497L1677 502L1680 503L1680 497L1678 497z"/>
<path style="fill:#47935c; stroke:none;" d="M1761 498L1762 499L1761 498z"/>
<path style="fill:#7f3f9b; stroke:none;" d="M772 499L777 502L772 499M1587 500L1589 503L1587 506L1589 504L1593 504L1591 500L1587 500z"/>
<path style="fill:#c2afd9; stroke:none;" d="M907.667 502.333L908.333 502.667L907.667 502.333z"/>
<path style="fill:#d4a153; stroke:none;" d="M1589 502L1590 503L1589 502z"/>
<path style="fill:#7f3f9b; stroke:none;" d="M912.667 503.333L913.333 503.667L912.667 503.333M923 503L922 507L923 507L925 504L923 503z"/>
<path style="fill:#47935c; stroke:none;" d="M143 504L144 505L143 504z"/>
<path style="fill:#7f3f9b; stroke:none;" d="M641 505L641 506L645 506L645 507L637 508C638.19 511.674 640.362 512.313 644 513L643 508L649 505L641 505M806 504L807 505L806 504M843.333 504.667L843.667 505.333L843.333 504.667z"/>
<path style="fill:#c2afd9; stroke:none;" d="M844.333 504.667L844.667 505.333L844.333 504.667z"/>
<path style="fill:#47935c; stroke:none;" d="M911 504L912 505L911 504z"/>
<path style="fill:#7f3f9b; stroke:none;" d="M1153 504L1154 505L1153 504z"/>
<path style="fill:#47935c; stroke:none;" d="M1767 504L1768 505L1767 504M916 505L917 506L916 505z"/>
<path style="fill:#7f3f9b; stroke:none;" d="M917 505L918 506L917 505M840 506L840 507L844 508L844 507L840 506M908 506L909 507L908 506M373.667 507.333L374.333 507.667L373.667 507.333M850 507L852 509L852 507L850 507M913 507C908.611 516.009 907.486 521.627 918 525L920 523L916 513L915 513L919 508L916 509L913 507z"/>
<path style="fill:#47935c; stroke:none;" d="M112 508L111 513L114 512L112 508M914 508L915 509L914 508z"/>
<path style="fill:#7f3f9b; stroke:none;" d="M1215 508L1217 510L1217 508L1215 508M613 509L612 515C614.66 513.065 614.967 511.666 613 509M1589 509L1589 511L1591 511L1591 509L1589 509z"/>
<path style="fill:#d4a153; stroke:none;" d="M640 510L641 511L640 510z"/>
<path style="fill:#030203; stroke:none;" d="M642 510L643 511L642 510z"/>
<path style="fill:#7f3f9b; stroke:none;" d="M779 510L779 515L780 515L781 510L779 510M838 510L839 511L838 510z"/>
<path style="fill:#47935c; stroke:none;" d="M913.333 510.667L913.667 511.333L913.333 510.667z"/>
<path style="fill:#7f3f9b; stroke:none;" d="M767 511L768 512L767 511M841 511L842 512L841 511z"/>
<path style="fill:#030203; stroke:none;" d="M911 511L911 514C913.006 512.873 913.006 512.127 911 511z"/>
<path style="fill:#7f3f9b; stroke:none;" d="M921 511L922 512L921 511z"/>
<path style="fill:#d4a153; stroke:none;" d="M642 512L643 513L642 512z"/>
<path style="fill:#47935c; stroke:none;" d="M118 513L119 514L118 513z"/>
<path style="fill:#7f3f9b; stroke:none;" d="M648 513L649 514L648 513M929 513L930 514L929 513M931 513L932 514L931 513M1589 513L1589 515L1591 513L1589 513z"/>
<path style="fill:#47935c; stroke:none;" d="M141 515L142 519L146 514L141 515z"/>
<path style="fill:#7f3f9b; stroke:none;" d="M146 514L147 515L146 514z"/>
<path style="fill:#47935c; stroke:none;" d="M147 514L147 516L149 516L147 514z"/>
<path style="fill:#7f3f9b; stroke:none;" d="M619 514L620 515L619 514M777 514L778 515L777 514z"/>
<path style="fill:#47935c; stroke:none;" d="M915 514L916 515L915 514z"/>
<path style="fill:#7f3f9b; stroke:none;" d="M1020 514L1021 515L1020 514M1148.67 514.333L1149.33 514.667L1148.67 514.333M1592 514L1593 515L1592 514z"/>
<path style="fill:#47935c; stroke:none;" d="M136 515L136 517L138 517L138 515L136 515z"/>
<path style="fill:#c2afd9; stroke:none;" d="M143 515L143 518L145 517L145 516L143 515z"/>
<path style="fill:#7f3f9b; stroke:none;" d="M783 515L784 516L783 515z"/>
<path style="fill:#030203; stroke:none;" d="M912 515L913 516L912 515z"/>
<path style="fill:#7f3f9b; stroke:none;" d="M1152 515L1153 516L1152 515z"/>
<path style="fill:#47935c; stroke:none;" d="M1798 515L1799 516L1798 515z"/>
<path style="fill:#7f3f9b; stroke:none;" d="M781 516L782 517L781 516z"/>
<path style="fill:#47935c; stroke:none;" d="M915 516L917 518L917 516L915 516z"/>
<path style="fill:#030203; stroke:none;" d="M910 519C912.628 520.397 914.181 520.415 916 518L910 519z"/>
<path style="fill:#7f3f9b; stroke:none;" d="M915 517L916 518L915 517M931 517L932 518L931 517M387 519L388 520L387 519M1153 519L1153 521L1155 521L1155 519L1153 519M884 520L885 521L884 520z"/>
<path style="fill:#030203; stroke:none;" d="M916 520L915 521L915 522L916 523L917 523L918 522L918 521L916 520z"/>
<path style="fill:#7f3f9b; stroke:none;" d="M931 520L930 522L931 520z"/>
<path style="fill:#47935c; stroke:none;" d="M932 520L931 522L933 522L932 520z"/>
<path style="fill:#7f3f9b; stroke:none;" d="M933.333 520.667L933.667 521.333L933.333 520.667M1117 520L1119 522L1119 520L1117 520M1599 520L1600 521L1599 520M385 521L386 522L385 521z"/>
<path style="fill:#47935c; stroke:none;" d="M911 521L911 522L914 522L911 521M104 522L105 523L104 522z"/>
<path style="fill:#7f3f9b; stroke:none;" d="M922 522L923 523L922 522M932 522L933 523L932 522M1598 522L1599 526L1600 526L1598 522M931 523L932 524L931 523M376 524L377 525L376 524M802 524L803 525L802 524z"/>
<path style="fill:#47935c; stroke:none;" d="M1384.33 524.667L1384.67 525.333L1384.33 524.667z"/>
<path style="fill:#7f3f9b; stroke:none;" d="M1385 524L1386 525L1385 524M1155 525L1156 526L1155 525M1383 525L1384 526L1383 525z"/>
<path style="fill:#47935c; stroke:none;" d="M930 526L931 527L930 526z"/>
<path style="fill:#7f3f9b; stroke:none;" d="M931 526L929 527L929 528L931 526M1025 526L1026 527L1025 526M803 527L804 534L805 534L803 527M911 527L912 528L911 527M1598 527L1598 531L1598 527M808 530L809 533L810 533L808 530M818.333 530.667L818.667 531.333L818.333 530.667M1674.33 531.667L1674.67 532.333L1674.33 531.667M1152 532L1155 534L1152 532M797.667 533.333L798.333 533.667L797.667 533.333M1667 533L1668 534L1667 533M383 534L383 535L386 535L383 534M801 535L798 537L798 542L801 535M1114 535L1114 537L1116 537L1114 535M1600 535L1601 536L1600 535M1664 539L1667 536L1664 539M1469 538L1470 539L1469 538M797 539L798 540L797 539M807 539L804 544L804 550C809.677 555.539 806.265 562.649 800 566L800 567L804 564L805 564L807 566L807 570L810 566L813 567L814 566L815 561L816 557L816 556L811 554L807 539M195.667 540.333L196.333 540.667L195.667 540.333z"/>
<path style="fill:#030203; stroke:none;" d="M807.333 541.667L807.667 542.333L807.333 541.667z"/>
<path style="fill:#7f3f9b; stroke:none;" d="M269.667 542.333L270.333 542.667L269.667 542.333M802.333 542.667L802.667 543.333L802.333 542.667M547 543L547 545L549 543L547 543M269.667 544.333L270.333 544.667L269.667 544.333M800 545L801 546L800 545M802 545L803 546L802 545M321 548L318 549L317 549L319 552L318 556L321 555L320 552L323 553L321 548M329 549L335 553L329 549z"/>
<path style="fill:#47935c; stroke:none;" d="M1303 550L1306 553L1305 550L1303 550z"/>
<path style="fill:#7f3f9b; stroke:none;" d="M1660 550L1661 551L1660 550M674 551L675 552L674 551M758 551L759 552L758 551z"/>
<path style="fill:#030203; stroke:none;" d="M808 552L812 558L808 552z"/>
<path style="fill:#7f3f9b; stroke:none;" d="M1147 552L1148 553L1147 552M1303 553L1304 554L1303 553M500.667 557.333L501.333 557.667L500.667 557.333M1188 557L1190 559L1190 557L1188 557M1424 557L1425 558L1424 557M1473 558L1473 566L1477 560L1473 558M328 559L328 561L330 561L328 559M496.333 559.667L496.667 560.333L496.333 559.667M503 560L506 564L505 561L508 563L503 560M1194 559L1194 561L1196 559L1194 559M1214 559L1215 560L1214 559z"/>
<path style="fill:#d4a153; stroke:none;" d="M810 560L810 562L812 562L812 560L810 560z"/>
<path style="fill:#7f3f9b; stroke:none;" d="M1486 560L1486 562L1488 562L1488 560L1486 560M1196 561L1197 562L1196 561M1203 561L1203 563L1206 563L1206 561L1203 561z"/>
<path style="fill:#030203; stroke:none;" d="M1474.33 562.667L1474.67 563.333L1474.33 562.667z"/>
<path style="fill:#7f3f9b; stroke:none;" d="M501 563L502 564L501 563z"/>
<path style="fill:#d4a153; stroke:none;" d="M804 564L805 565L804 564M806 564L806 565L810 565L806 564z"/>
<path style="fill:#7f3f9b; stroke:none;" d="M1417 564L1418 565L1417 564M1187 565L1188 566L1187 565M1210 565L1209 566L1209 567L1210 568L1211 568L1212 567L1212 566L1210 565M593 566L595 569L595 566L593 566M1193 571L1188 571L1190 576L1191 576L1190 572L1194 574L1194 575L1192 577L1195 572L1198 573L1197 567L1193 571M797 568L797 569L800 569L797 568M1476 568L1479 570L1476 568M1186 569L1187 570L1186 569z"/>
<path style="fill:#030203; stroke:none;" d="M1194 569L1194 572L1196 571L1196 570L1194 569z"/>
<path style="fill:#7f3f9b; stroke:none;" d="M339 570L340 571L339 570M1474.67 570.333L1475.33 570.667L1474.67 570.333M599 571L594 577L599 576L599 575L597 574L599 571M1010 571L1011 572L1010 571M1186 571L1187 572L1186 571z"/>
<path style="fill:#c2afd9; stroke:none;" d="M1190 572L1194 575L1190 572z"/>
<path style="fill:#7f3f9b; stroke:none;" d="M312 573L313 574L312 573M316 575L321 574L316 575z"/>
<path style="fill:#c2afd9; stroke:none;" d="M597 574L598 575L597 574z"/>
<path style="fill:#7f3f9b; stroke:none;" d="M624 575L625 576L624 575M801 576L802 577L801 576M822 576L823 577L822 576M1135 576L1136 578L1137 578L1138 576L1135 576z"/>
<path style="fill:#47935c; stroke:none;" d="M1773 576L1774 577L1773 576z"/>
<path style="fill:#7f3f9b; stroke:none;" d="M1456.67 578.333L1457.33 578.667L1456.67 578.333M1166 581C1168.4 581.575 1168.49 581.475 1169 579L1166 581M1485 579L1486 580L1485 579M316 580L317 581L316 580M320 580L319 585L320 585L320 580M329 580L330 581L329 580M1015.67 580.333L1016.33 580.667L1015.67 580.333M586 581L587 582L586 581M657 581L658 582L657 581M314 582L314 584L316 584L316 582L314 582M584 583L585 584L584 583M658 583L659 584L658 583M236 584L235 586L237 586L236 584M239 585L242 588L243 585L239 585z"/>
<path style="fill:#c2afd9; stroke:none;" d="M241 586L242 587L241 586z"/>
<path style="fill:#7f3f9b; stroke:none;" d="M254 586L255 587L254 586M1114 586L1113 595L1118 598L1122 596L1121 590L1119 592L1118 592L1117 587L1114 586M252 587L253 588L252 587M355.333 587.667L355.667 588.333L355.333 587.667M549 587L552 589L549 587M1118 587L1120 589L1118 587M1197.33 587.667L1197.67 588.333L1197.33 587.667M357 590L356 593L357 590M549 590L549 592L551 592L551 590L549 590M646 591L647 592L646 591M648 591L649 592L648 591M1641 591L1642 592L1641 591M1643.33 591.667L1643.67 592.333L1643.33 591.667M323.333 592.667L323.667 593.333L323.333 592.667M582 592L583 593L582 592M652 592L651 594L652 592M654 592L655 593L654 592M345 593L346 594L345 593M256 594L257 595L256 594M801 596L801 598L803 596L801 596M1110 596L1109 607L1113 607L1114 607C1114.81 601.991 1114.04 599.203 1110 596M343 597L344 598L343 597M1666 597L1667 598L1666 597M1120 598L1121 599L1120 598M1337 598L1338 599L1337 598M1628 599L1629 600L1628 599M343.667 600.333L344.333 600.667L343.667 600.333z"/>
<path style="fill:#c2afd9; stroke:none;" d="M1109 600L1111 602L1111 600L1109 600z"/>
<path style="fill:#7f3f9b; stroke:none;" d="M816 601L816 603L818 603L816 601z"/>
<path style="fill:#47935c; stroke:none;" d="M1734 601L1737 603L1737 602L1734 601M1771.33 601.667L1771.67 602.333L1771.33 601.667z"/>
<path style="fill:#7f3f9b; stroke:none;" d="M1353 602L1354 603L1353 602M1675.67 602.333L1676.33 602.667L1675.67 602.333M342 603L342 605L344 605L342 603M1037.33 603.667L1037.67 604.333L1037.33 603.667M1039 603L1039 609L1040 609L1039 603M1662.67 603.333L1663.33 603.667L1662.67 603.333M1559.67 604.333L1560.33 604.667L1559.67 604.333M821 605L822 606L821 605M838 605L839 606L838 605z"/>
<path style="fill:#47935c; stroke:none;" d="M1748.33 605.667L1748.67 606.333L1748.33 605.667z"/>
<path style="fill:#7f3f9b; stroke:none;" d="M826 606L827 607L826 606M1554 606L1555 607L1554 606M1668 606L1669 607L1668 606M343 607L344 608L343 607M1106.67 607.333L1107.33 607.667L1106.67 607.333M341 608L342 609L341 608M364 609L366 613L365 619L369 613L370 613L375 618L376 617L371 610L364 609M827 609L828 610L827 609M1553 609L1556 613L1553 609z"/>
<path style="fill:#c2afd9; stroke:none;" d="M369 613L368 619L374 619L369 613z"/>
<path style="fill:#7f3f9b; stroke:none;" d="M669 614L669 616L671 614L669 614M820 614L820 620L821 620L822 614L820 614M704 615L707 617L704 615M186 616L187 617L186 616M1149 617L1149 619L1152 620L1152 616L1149 617z"/>
<path style="fill:#47935c; stroke:none;" d="M367 617L366 622L367 617z"/>
<path style="fill:#7f3f9b; stroke:none;" d="M708 617L709 618L708 617M828.333 617.667L828.667 618.333L828.333 617.667M1511 618L1512 619L1511 618M188 619L189 620L188 619M368 620L368 621L376 621L368 620M1138.33 619.667L1138.67 620.333L1138.33 619.667M1617.67 619.333L1618.33 619.667L1617.67 619.333M365 621L366 622L365 621M367 621L368 622L367 621M366 622L367 623L366 622M1128 622L1128 624L1130 624L1128 622z"/>
<path style="fill:#47935c; stroke:none;" d="M1386 622L1389 625L1386 622z"/>
<path style="fill:#c2afd9; stroke:none;" d="M1387 623L1388 624L1387 623z"/>
<path style="fill:#7f3f9b; stroke:none;" d="M1612 623L1613 624L1612 623M1614 624L1614 625L1617 625L1614 624M496 625L496 630L493 629L493 630L493 631L495 633L496 633L496 625M1123 625L1124 626L1123 625M1165 625L1166 626L1165 625M494 626L495 627L494 626z"/>
<path style="fill:#47935c; stroke:none;" d="M494 627L494 628L497 628L494 627z"/>
<path style="fill:#7f3f9b; stroke:none;" d="M1065.33 626.667L1065.67 627.333L1065.33 626.667M1386 626L1387 627L1386 626M1617 626L1616 629L1617 626z"/>
<path style="fill:#c2afd9; stroke:none;" d="M495 627L494 628L494 629L495 630L496 630L497 629L497 628L495 627z"/>
<path style="fill:#7f3f9b; stroke:none;" d="M1161 628L1161 629L1165 630L1165 629L1161 628M1218 628L1219 629L1218 628M1221.33 630.667L1221.67 631.333L1221.33 630.667M1082 631L1083 632L1082 631M1264 632L1265 633L1264 632z"/>
<path style="fill:#47935c; stroke:none;" d="M1336 632L1337 633L1336 632z"/>
<path style="fill:#7f3f9b; stroke:none;" d="M391.667 633.333L392.333 633.667L391.667 633.333z"/>
<path style="fill:#47935c; stroke:none;" d="M1339 634L1340 635L1339 634z"/>
<path style="fill:#7f3f9b; stroke:none;" d="M1065.67 635.333L1066.33 635.667L1065.67 635.333M690 636L691 637L690 636M1608.67 636.333L1609.33 636.667L1608.67 636.333M489 637L488 639L490 639L489 637z"/>
<path style="fill:#47935c; stroke:none;" d="M1372 637L1370 640L1372 637M1488 637L1487 639L1488 637z"/>
<path style="fill:#7f3f9b; stroke:none;" d="M690 640L693 638L690 640M816 638L814 639L814 640L816 638M1488 638L1489 639L1488 638M1490 639L1491 640L1490 639M1607.67 639.333L1608.33 639.667L1607.67 639.333M693 640L694 641L693 640M798 641L797 646L798 641M813.333 641.667L813.667 642.333L813.333 641.667M816 641L817 642L816 641M1400 641L1401 642L1400 641M1609.67 641.333L1610.33 641.667L1609.67 641.333M906 642L907 643L906 642M494 643L493 645L494 643M818 645L821 644L818 645z"/>
<path style="fill:#47935c; stroke:none;" d="M1721 643L1720 645L1721 643z"/>
<path style="fill:#7f3f9b; stroke:none;" d="M684 644L686 646L684 644M845 646L848 646L847 644L845 646M481 646L482 647L481 646M753 646L754 647L753 646M510 647L512 651C511.146 653.697 511.149 654.386 514 655L510 647M736 647L737 648L736 647M514.667 648.333L515.333 648.667L514.667 648.333M993 648L994 649L993 648M370 650L369 653L372 651L370 650M384 651L381 653L383 655L383 656L381 661L380 661L375 660L375 666C379.107 664.464 381.721 663.388 383 659L384 659L385 661L384 651M685 651L684 653L685 651M863 651L864 652L863 651M1080 651L1081 652L1080 651M1575 651L1572 654L1577 654L1575 651M1630.67 652.333L1631.33 652.667L1630.67 652.333M1075 654L1073 657L1077 657L1075 654M1084 654L1085 655L1084 654M513 662L511 659L514 656C509.924 657.258 509.395 659.575 513 662M689 656L689 658L691 656L689 656M1065 658L1066 659L1065 658M1669 658L1671 660L1671 658L1669 658z"/>
<path style="fill:#c2afd9; stroke:none;" d="M383.333 659.667L383.667 660.333L383.333 659.667z"/>
<path style="fill:#7f3f9b; stroke:none;" d="M505 660L505 661L509 661L505 660M689.667 659.333L690.333 659.667L689.667 659.333M1073.33 660.667L1073.67 661.333L1073.33 660.667M1767 660L1767 662L1769 660L1767 660M687 661L688 662L687 661M697 661L698 662L697 661M1063.33 661.667L1063.67 662.333L1063.33 661.667M736 662L737 663L736 662M1063 664L1064 665L1063 664M1792.33 664.667L1792.67 665.333L1792.33 664.667z"/>
<path style="fill:#47935c; stroke:none;" d="M1366.67 666.333L1367.33 666.667L1366.67 666.333z"/>
<path style="fill:#7f3f9b; stroke:none;" d="M1168 667L1169 668L1168 667M1568 667L1569 668L1568 667M1826 670L1824 674L1831 672L1828 670L1826 670M358.667 672.333L359.333 672.667L358.667 672.333M391 672L389 674C389.1 678.689 388.251 682.188 394 682L394 678L393 672L391 672M1779 672L1779 673L1783 673L1779 672M692 673L693 674L692 673M776 674L775 677L776 677L776 674M350 678L351 678L351 676L352 676L352 679L353 679L353 675L350 678z"/>
<path style="fill:#c2afd9; stroke:none;" d="M351.333 676.667L351.667 677.333L351.333 676.667z"/>
<path style="fill:#7f3f9b; stroke:none;" d="M137.667 677.333L138.333 677.667L137.667 677.333z"/>
<path style="fill:#c2afd9; stroke:none;" d="M390 677L392 681L390 677z"/>
<path style="fill:#7f3f9b; stroke:none;" d="M615 677L618 679L615 677z"/>
<path style="fill:#47935c; stroke:none;" d="M1368 678L1370 680L1370 678L1368 678z"/>
<path style="fill:#7f3f9b; stroke:none;" d="M345 679L347 681L347 679L345 679M146.667 680.333L147.333 680.667L146.667 680.333M616 680L617 681L616 680M771.667 680.333L772.333 680.667L771.667 680.333M423 683L424 684L423 683M716 683L719 685L716 683M781.667 683.333L782.333 683.667L781.667 683.333M620.667 684.333L621.333 684.667L620.667 684.333M788 684L788 686L790 686L788 684M1775 685L1776 686L1775 685M1068 686L1069 687L1068 686M1201.67 687.333L1202.33 687.667L1201.67 687.333M853.333 689.667L853.667 690.333L853.333 689.667M1558 689L1560 691L1560 689L1558 689M1217 690L1218 691L1217 690M340 691L339 696L343 694L343 692L342 691L340 691M779.333 691.667L779.667 692.333L779.333 691.667M869 691L870 692L869 691z"/>
<path style="fill:#c2afd9; stroke:none;" d="M341 692L342 693L341 692z"/>
<path style="fill:#7f3f9b; stroke:none;" d="M466 692L467 693L466 692M1008 693L1009 694L1008 693M1168 693L1166 697L1168 693M344 696L345 697L344 696M1210 702L1215 699L1218 701C1216.11 695.084 1212.4 698.014 1210 702M1580.33 696.667L1580.67 697.333L1580.33 696.667M468 698L467 701L468 701L469 701L468 698M478 698L479 699L478 698M347 699L348 700L347 699M1746 700L1746 701L1749 701L1746 700M1777 700L1778 701L1777 700M627 701L628 702L627 701M367 702L368 703L367 702M471 702L468 704L468 706L470 709L474 707L474 706L471 702M517 702L517 705L519 704L519 703L517 702M1216.67 702.333L1217.33 702.667L1216.67 702.333M859 703L860 704L859 703M360 705L363 709L360 705M391 706L392 707L391 706M1592 706L1593 707L1592 706M1603 706L1604 707L1603 706M507.333 707.667L507.667 708.333L507.333 707.667M1599 707L1596 710L1596 711L1603 711L1599 707M1217 708L1218 709L1217 708M1507 708L1508 709L1507 708M989 709L992 711L989 709z"/>
<path style="fill:#47935c; stroke:none;" d="M998 710L998 711L1001 711L998 710z"/>
<path style="fill:#7f3f9b; stroke:none;" d="M1000 709L1001 710L1000 709M1604 709L1605 710L1604 709M1606.67 709.333L1607.33 709.667L1606.67 709.333M1609 709L1610 710L1609 709M506 710L507 711L506 710z"/>
<path style="fill:#c2afd9; stroke:none;" d="M999 710L999 713L1001 712L1001 711L999 710z"/>
<path style="fill:#7f3f9b; stroke:none;" d="M1001.33 710.667L1001.67 711.333L1001.33 710.667M998.333 711.667L998.667 712.333L998.333 711.667M1594 711L1594 713L1596 713L1594 711M907.333 712.667L907.667 713.333L907.333 712.667M1000 712L1001 713L1000 712M999 713L1000 714L999 713M1576 713L1575 715L1577 715L1576 713M1594 714L1594 716L1596 716L1596 714L1594 714M172 715L171 717L173 717L172 715M142 716L142 718L144 718L144 716L142 716M450 716L450 719L451 719L450 716M1227 716L1228 717L1227 716M1835 717L1838 719L1835 717M1620 719L1620 720L1624 724L1629 724C1627.33 719.802 1624.25 719.352 1620 719M447 720L449 722L447 720M504.667 720.333L505.333 720.667L504.667 720.333M199 721L201 723L201 721L199 721M623 722L624 723L623 722M1614 723L1617 727L1618 723L1614 723M572 724L573 725L572 724M687 727L691 727C689.444 725.187 688.556 725.187 687 727M1235 726L1236 727L1235 726M1178 727L1179 728L1178 727M341 729L340 733L341 729z"/>
<path style="fill:#47935c; stroke:none;" d="M1009 729L1010 730L1009 729z"/>
<path style="fill:#7f3f9b; stroke:none;" d="M407.667 730.333L408.333 730.667L407.667 730.333M887 730L888 731L887 730M412 732L413 733L412 732z"/>
<path style="fill:#47935c; stroke:none;" d="M982 733L983 734L982 733z"/>
<path style="fill:#7f3f9b; stroke:none;" d="M983 733L984 736L983 733M182 735L182 737L184 735L182 735M405 735L406 736L405 735M413 735L413 737L415 737L415 735L413 735z"/>
<path style="fill:#47935c; stroke:none;" d="M985 735L986 736L985 735z"/>
<path style="fill:#7f3f9b; stroke:none;" d="M1798 735L1800 737L1800 735L1798 735M177.667 737.333L178.333 737.667L177.667 737.333M405 738L406 739L405 738M1571 738C1571.58 739.91 1571.99 741.334 1573 739L1576 743L1577 743L1576 738L1571 738M133 739L134 740L133 739z"/>
<path style="fill:#c2afd9; stroke:none;" d="M1573 739L1574 740L1573 739z"/>
<path style="fill:#7f3f9b; stroke:none;" d="M136 740L137 741L136 740z"/>
<path style="fill:#47935c; stroke:none;" d="M1573 740L1574 741L1573 740z"/>
<path style="fill:#7f3f9b; stroke:none;" d="M1803.33 742.667L1803.67 743.333L1803.33 742.667M984 743L985 744L984 743z"/>
<path style="fill:#47935c; stroke:none;" d="M1822 743L1823 744L1822 743z"/>
<path style="fill:#d4a153; stroke:none;" d="M1823 743L1824 744L1823 743z"/>
<path style="fill:#7f3f9b; stroke:none;" d="M204 744L205 745L204 744M965 746L965 749L969 751C968.856 748.338 968.181 747.364 971 747L971 746L968 746L968 745L970 745L965 746z"/>
<path style="fill:#47935c; stroke:none;" d="M968 745L968 746L971 748L972 748L974 747L968 745z"/>
<path style="fill:#7f3f9b; stroke:none;" d="M1822.67 744.333L1823.33 744.667L1822.67 744.333M973 745L974 746L973 745M975 746L975 750L978 749L978 747L975 746M1199 746L1200 747L1199 746z"/>
<path style="fill:#47935c; stroke:none;" d="M964 747L965 748L964 747z"/>
<path style="fill:#7f3f9b; stroke:none;" d="M1228 747L1229 748L1228 747z"/>
<path style="fill:#47935c; stroke:none;" d="M977 749C975.878 751.66 975.606 752.333 978 754L977 749z"/>
<path style="fill:#7f3f9b; stroke:none;" d="M642 750L643 751L642 750M978 750L977 755L980 756L980 750L978 750M974.333 751.667L974.667 752.333L974.333 751.667M1210 751L1211 752L1210 751z"/>
<path style="fill:#47935c; stroke:none;" d="M1562 752L1563 753L1562 752z"/>
<path style="fill:#7f3f9b; stroke:none;" d="M975 753L976 754L975 753M180.333 754.667L180.667 755.333L180.333 754.667M1622 754L1623 755L1622 754z"/>
<path style="fill:#47935c; stroke:none;" d="M853.667 755.333L854.333 755.667L853.667 755.333z"/>
<path style="fill:#7f3f9b; stroke:none;" d="M1849 758L1850 759L1849 758z"/>
<path style="fill:#47935c; stroke:none;" d="M855.333 759.667L855.667 760.333L855.333 759.667M857.333 761.667L857.667 762.333L857.333 761.667M1006.33 761.667L1006.67 762.333L1006.33 761.667z"/>
<path style="fill:#7f3f9b; stroke:none;" d="M586 762L585 764L586 762M692 762L693 763L692 762M181 763L185 768L185 769L183 773L187 773L185 770L185 769L187 768L187 767L181 763z"/>
<path style="fill:#d4a153; stroke:none;" d="M692 763L693 764L692 763z"/>
<path style="fill:#7f3f9b; stroke:none;" d="M483 764L484 765L483 764M638 768L637 770L638 768M1540 772L1541 773L1540 772M695 774L696 777L695 774M697 774L698 775L697 774M1455 774L1455 775L1462 780L1455 774z"/>
<path style="fill:#c2afd9; stroke:none;" d="M1458 776L1459 777L1458 776z"/>
<path style="fill:#7f3f9b; stroke:none;" d="M1109 780L1112 778L1109 780M1389 782L1389 785L1392 785L1392 782L1389 782z"/>
<path style="fill:#47935c; stroke:none;" d="M1863.33 785.667L1863.67 786.333L1863.33 785.667z"/>
<path style="fill:#7f3f9b; stroke:none;" d="M1472 786L1472 793L1475 793L1475 790L1473 791L1475 786L1472 786M655 787L656 788L655 787z"/>
<path style="fill:#47935c; stroke:none;" d="M1492 787L1492 789L1494 789L1494 787L1492 787z"/>
<path style="fill:#c2afd9; stroke:none;" d="M1473 789L1473 791L1475 789L1473 789z"/>
<path style="fill:#7f3f9b; stroke:none;" d="M648 790L649 793L650 793L651 790L648 790M541 791L542 792L541 791M653 791L654 792L653 791M657 793L658 794L657 793M1475 794L1477 797L1475 794M539 801L544 795C540.186 795.661 539.43 797.259 539 801M1050.67 795.333L1051.33 795.667L1050.67 795.333z"/>
<path style="fill:#d4a153; stroke:none;" d="M541 796L540 800L543 796L541 796z"/>
<path style="fill:#c2afd9; stroke:none;" d="M1475 796L1476 797L1475 796z"/>
<path style="fill:#7f3f9b; stroke:none;" d="M667 798L668 799L667 798M1432 799L1433 800L1432 799M1436 799L1437 800L1436 799M402 800L403 801L402 800M1439 800L1439 801L1443 801L1439 800M1021 801L1022 805L1025 804L1021 801M1050 801L1049 805L1052 804L1052 801L1050 801M1419.33 801.667L1419.67 802.333L1419.33 801.667z"/>
<path style="fill:#47935c; stroke:none;" d="M1480 801L1481 802L1480 801z"/>
<path style="fill:#7f3f9b; stroke:none;" d="M460 802L461 803L460 802z"/>
<path style="fill:#47935c; stroke:none;" d="M1051 802L1052 803L1051 802z"/>
<path style="fill:#7f3f9b; stroke:none;" d="M1430 802L1429 805L1429 806C1431.92 805.361 1431.86 804.134 1430 802z"/>
<path style="fill:#47935c; stroke:none;" d="M1754 802L1755 803L1754 802M1838.33 803.667L1838.67 804.333L1838.33 803.667z"/>
<path style="fill:#7f3f9b; stroke:none;" d="M1527 805L1528 806L1527 805z"/>
<path style="fill:#47935c; stroke:none;" d="M1842 805L1838 806L1838 807L1842 805z"/>
<path style="fill:#7f3f9b; stroke:none;" d="M1055.33 806.667L1055.67 807.333L1055.33 806.667M1422 806L1421 808L1423 808L1422 806z"/>
<path style="fill:#47935c; stroke:none;" d="M1528 806L1529 807L1528 806M1816 808L1819 806L1816 808M1511 810L1511 811L1515 811L1511 810z"/>
<path style="fill:#7f3f9b; stroke:none;" d="M537 812L537 814L539 814L537 812z"/>
<path style="fill:#47935c; stroke:none;" d="M1492 813L1493 814L1492 813z"/>
<path style="fill:#7f3f9b; stroke:none;" d="M1063 815L1063 818L1064 818L1063 815z"/>
<path style="fill:#47935c; stroke:none;" d="M1685 815L1686 816L1685 815M1493 816L1494 817L1493 816M1025.67 817.333L1026.33 817.667L1025.67 817.333z"/>
<path style="fill:#7f3f9b; stroke:none;" d="M1027 817L1028 818L1027 817M1429 817L1430 818L1429 817M1025.67 818.333L1026.33 818.667L1025.67 818.333M1431 818L1433 820L1431 818z"/>
<path style="fill:#47935c; stroke:none;" d="M1678 821L1679 822L1678 821z"/>
<path style="fill:#7f3f9b; stroke:none;" d="M1211.33 825.667L1211.67 826.333L1211.33 825.667M1223 825L1221 829L1223 825z"/>
<path style="fill:#47935c; stroke:none;" d="M1659 825L1660 826L1659 825z"/>
<path style="fill:#7f3f9b; stroke:none;" d="M823 826L824 827L823 826z"/>
<path style="fill:#47935c; stroke:none;" d="M824.333 826.667L824.667 827.333L824.333 826.667z"/>
<path style="fill:#7f3f9b; stroke:none;" d="M1011 826L1012 827L1011 826M776 828L777 829L776 828M1022 830L1024 833L1022 830M1009 834L1010 835L1012 832L1009 834M1017.67 832.333L1018.33 832.667L1017.67 832.333M1446 833L1447 834L1446 833M1267 839L1268 840L1267 839M1447 841L1447 842L1449 846L1450 846L1451 846L1447 841M1022 842L1023 843L1022 842M1452 843L1453 844L1452 843z"/>
<path style="fill:#47935c; stroke:none;" d="M1685.67 843.333L1686.33 843.667L1685.67 843.333z"/>
<path style="fill:#c2afd9; stroke:none;" d="M1449 844L1450 845L1449 844z"/>
<path style="fill:#7f3f9b; stroke:none;" d="M1455 844L1456 845L1455 844M1428 847L1430 849L1428 847M1442 850L1441 852L1443 852L1442 850M1433 854L1434 855L1433 854M1428 858L1428 860L1430 860L1430 858L1428 858M1445 859L1446 860L1445 859M1457 859L1457 866L1458 866C1459.33 862.791 1459.42 861.529 1457 859z"/>
<path style="fill:#c2afd9; stroke:none;" d="M1458 859L1459 860L1458 859z"/>
<path style="fill:#7f3f9b; stroke:none;" d="M437 861L437 863L439 863L437 861M1446 861L1446 862L1449 862L1446 861z"/>
<path style="fill:#c2afd9; stroke:none;" d="M1457 861L1457 864L1458 864L1457 861M1447 862L1448 863L1447 862z"/>
<path style="fill:#7f3f9b; stroke:none;" d="M1474 866L1475 867L1474 866M407 868L408 869L407 868M1470 870L1471 871L1470 870M1377.67 871.333L1378.33 871.667L1377.67 871.333M629.333 872.667L629.667 873.333L629.333 872.667M1452.33 873.667L1452.67 874.333L1452.33 873.667M614 875L614 877L616 877L616 875L614 875M1447 878L1448 879L1447 878M1455 878L1456 881L1457 881L1457 878L1455 878M1445 879L1446 880L1445 879M1446 881L1446 882L1450 881L1446 881M1391 884L1391 885L1397 885L1396 882L1391 884M1384 886L1385 887L1384 886M1389 886L1389 887L1394 889L1389 886M1335 887L1334 889L1335 887M1396 887L1396 889L1398 887L1396 887M1334 891L1335 892L1334 891M1444 894C1445.31 899.064 1442.66 901.844 1440 906L1444 907L1446 900L1447 900L1447 904L1448 904L1447 899L1447 898L1447 897L1449 895L1444 894M1389 895L1390 896L1389 895M1443 896L1444 897L1443 896M441.667 897.333L442.333 897.667L441.667 897.333z"/>
<path style="fill:#030203; stroke:none;" d="M1445 899L1446 900L1445 899z"/>
<path style="fill:#7f3f9b; stroke:none;" d="M429 900L430 901L429 900M1436 903L1436 905L1438 905L1436 903z"/>
</svg>
